<?xml version="1.0" encoding="UTF-8" standalone="no"?>
<!DOCTYPE svg PUBLIC "-//W3C//DTD SVG 1.1//EN"
 "http://www.w3.org/Graphics/SVG/1.1/DTD/svg11.dtd">
<!-- Generated by graphviz version 12.2.0 (20241103.1931)
 -->
<!-- Title: AAX_CPacketDispatcher::RegisterPacket Pages: 1 -->
<svg width="315pt" height="90pt"
 viewBox="0.00 0.00 314.50 89.50" xmlns="http://www.w3.org/2000/svg" xmlns:xlink="http://www.w3.org/1999/xlink">
<g id="graph0" class="graph" transform="scale(1 1) rotate(0) translate(4 85.5)">
<title>AAX_CPacketDispatcher::RegisterPacket</title>
<polygon fill="white" stroke="none" points="-4,4 -4,-85.5 310.5,-85.5 310.5,4 -4,4"/>
<!-- Node1 -->
<g id="node1" class="node">
<title>Node1</title>
<g id="a_node1"><a xlink:title=" ">
<polygon fill="#bfbfbf" stroke="black" points="0,-25.5 0,-56 127,-56 127,-25.5 0,-25.5"/>
<text text-anchor="start" x="8" y="-42.5" font-family="Helvetica,sans-Serif" font-size="10.00">AAX_CPacketDispatcher</text>
<text text-anchor="middle" x="63.5" y="-31.25" font-family="Helvetica,sans-Serif" font-size="10.00">::RegisterPacket</text>
</a>
</g>
</g>
<!-- Node2 -->
<g id="node2" class="node">
<title>Node2</title>
<g id="a_node2"><a xlink:href="a01900.html#afa837e03b555f3093144838bddd558f3" target="_top" xlink:title=" ">
<polygon fill="white" stroke="black" points="163,-50.5 163,-81 306.5,-81 306.5,-50.5 163,-50.5"/>
<text text-anchor="start" x="171" y="-67.5" font-family="Helvetica,sans-Serif" font-size="10.00">AAX_CPacketDispatcher</text>
<text text-anchor="middle" x="234.75" y="-56.25" font-family="Helvetica,sans-Serif" font-size="10.00">::GenerateSingleValuePacket</text>
</a>
</g>
</g>
<!-- Node1&#45;&gt;Node2 -->
<g id="edge1" class="edge">
<title>Node1&#45;&gt;Node2</title>
<path fill="none" stroke="midnightblue" d="M127.04,-49.99C135,-51.16 143.25,-52.38 151.46,-53.6"/>
<polygon fill="midnightblue" stroke="midnightblue" points="150.71,-57.02 161.12,-55.02 151.74,-50.1 150.71,-57.02"/>
</g>
<!-- Node3 -->
<g id="node3" class="node">
<title>Node3</title>
<g id="a_node3"><a xlink:href="a01900.html#a1848f0bfa473b54e9ee8e32872c89cb1" target="_top" xlink:title=" ">
<polygon fill="white" stroke="black" points="171.25,-0.5 171.25,-31 298.25,-31 298.25,-0.5 171.25,-0.5"/>
<text text-anchor="start" x="179.25" y="-17.5" font-family="Helvetica,sans-Serif" font-size="10.00">AAX_CPacketDispatcher</text>
<text text-anchor="middle" x="234.75" y="-6.25" font-family="Helvetica,sans-Serif" font-size="10.00">::RegisterPacket</text>
</a>
</g>
</g>
<!-- Node1&#45;&gt;Node3 -->
<g id="edge2" class="edge">
<title>Node1&#45;&gt;Node3</title>
<path fill="none" stroke="midnightblue" d="M127.04,-31.51C137.66,-29.94 148.79,-28.3 159.67,-26.69"/>
<polygon fill="midnightblue" stroke="midnightblue" points="160.02,-30.18 169.4,-25.25 159,-23.25 160.02,-30.18"/>
</g>
</g>
</svg>
