<?xml version="1.0" encoding="UTF-8" standalone="no"?>
<!DOCTYPE svg PUBLIC "-//W3C//DTD SVG 1.1//EN"
 "http://www.w3.org/Graphics/SVG/1.1/DTD/svg11.dtd">
<!-- Generated by graphviz version 12.2.0 (20241103.1931)
 -->
<!-- Title: AAX_CString Pages: 1 -->
<svg width="173pt" height="164pt"
 viewBox="0.00 0.00 173.00 164.25" xmlns="http://www.w3.org/2000/svg" xmlns:xlink="http://www.w3.org/1999/xlink">
<g id="graph0" class="graph" transform="scale(1 1) rotate(0) translate(4 160.25)">
<title>AAX_CString</title>
<polygon fill="white" stroke="none" points="-4,4 -4,-160.25 169,-160.25 169,4 -4,4"/>
<!-- Node1 -->
<g id="node1" class="node">
<title>Node1</title>
<g id="a_node1"><a xlink:title="A generic AAX string class with similar functionality to std::string">
<polygon fill="#bfbfbf" stroke="black" points="13.75,-0.5 13.75,-19.75 88.25,-19.75 88.25,-0.5 13.75,-0.5"/>
<text text-anchor="middle" x="51" y="-6.25" font-family="Helvetica,sans-Serif" font-size="10.00">AAX_CString</text>
</a>
</g>
</g>
<!-- Node2 -->
<g id="node2" class="node">
<title>Node2</title>
<g id="a_node2"><a xlink:href="a02332.html" target="_top" xlink:title="A simple string container that can be passed across a binary boundary. This class,...">
<polygon fill="white" stroke="black" points="0,-68 0,-87.25 70,-87.25 70,-68 0,-68"/>
<text text-anchor="middle" x="35" y="-73.75" font-family="Helvetica,sans-Serif" font-size="10.00">AAX_IString</text>
</a>
</g>
</g>
<!-- Node2&#45;&gt;Node1 -->
<g id="edge1" class="edge">
<title>Node2&#45;&gt;Node1</title>
<path fill="none" stroke="midnightblue" d="M39.89,-56.59C42.86,-44.43 46.51,-29.51 48.79,-20.16"/>
<polygon fill="midnightblue" stroke="midnightblue" points="36.56,-55.5 37.58,-66.05 43.36,-57.16 36.56,-55.5"/>
</g>
<!-- Node3 -->
<g id="node3" class="node">
<title>Node3</title>
<g id="a_node3"><a xlink:title=" ">
<polygon fill="white" stroke="#bfbfbf" points="88.25,-68 88.25,-87.25 147.75,-87.25 147.75,-68 88.25,-68"/>
<text text-anchor="middle" x="118" y="-73.75" font-family="Helvetica,sans-Serif" font-size="10.00">std::string</text>
</a>
</g>
</g>
<!-- Node3&#45;&gt;Node1 -->
<g id="edge2" class="edge">
<title>Node3&#45;&gt;Node1</title>
<path fill="none" stroke="#9a32cd" stroke-dasharray="5,2" d="M100.55,-59.57C87.66,-46.96 70.6,-30.29 60.24,-20.16"/>
<polygon fill="#9a32cd" stroke="#9a32cd" points="98,-61.97 107.6,-66.46 102.9,-56.97 98,-61.97"/>
<text text-anchor="middle" x="106.89" y="-40" font-family="Helvetica,sans-Serif" font-size="10.00"> mString</text>
</g>
<!-- Node4 -->
<g id="node4" class="node">
<title>Node4</title>
<g id="a_node4"><a xlink:title=" ">
<polygon fill="white" stroke="#bfbfbf" points="71,-125.25 71,-155.75 165,-155.75 165,-125.25 71,-125.25"/>
<text text-anchor="start" x="79" y="-142.25" font-family="Helvetica,sans-Serif" font-size="10.00">std::basic_string&lt;</text>
<text text-anchor="middle" x="118" y="-131" font-family="Helvetica,sans-Serif" font-size="10.00"> Char &gt;</text>
</a>
</g>
</g>
<!-- Node4&#45;&gt;Node3 -->
<g id="edge3" class="edge">
<title>Node4&#45;&gt;Node3</title>
<path fill="none" stroke="midnightblue" d="M118,-113.34C118,-104.21 118,-94.55 118,-87.75"/>
<polygon fill="midnightblue" stroke="midnightblue" points="114.5,-113.25 118,-123.25 121.5,-113.25 114.5,-113.25"/>
</g>
</g>
</svg>
