<?xml version="1.0" encoding="UTF-8" standalone="no"?>
<!DOCTYPE svg PUBLIC "-//W3C//DTD SVG 1.1//EN"
 "http://www.w3.org/Graphics/SVG/1.1/DTD/svg11.dtd">
<!-- Generated by graphviz version 12.2.0 (20241103.1931)
 -->
<!-- Title: AAX_IString::Get Pages: 1 -->
<svg width="248pt" height="66pt"
 viewBox="0.00 0.00 247.75 66.25" xmlns="http://www.w3.org/2000/svg" xmlns:xlink="http://www.w3.org/1999/xlink">
<g id="graph0" class="graph" transform="scale(1 1) rotate(0) translate(4 62.25)">
<title>AAX_IString::Get</title>
<polygon fill="white" stroke="none" points="-4,4 -4,-62.25 243.75,-62.25 243.75,4 -4,4"/>
<!-- Node1 -->
<g id="node1" class="node">
<title>Node1</title>
<g id="a_node1"><a xlink:title=" ">
<polygon fill="#bfbfbf" stroke="black" points="148,-19.5 148,-38.75 239.75,-38.75 239.75,-19.5 148,-19.5"/>
<text text-anchor="middle" x="193.88" y="-25.25" font-family="Helvetica,sans-Serif" font-size="10.00">AAX_IString::Get</text>
</a>
</g>
</g>
<!-- Node2 -->
<g id="node2" class="node">
<title>Node2</title>
<g id="a_node2"><a xlink:href="a00950.html#aef81989128dcac01f2be8fd25096540f" target="_top" xlink:title="Helper function to check if two Effect IDs are equivalent.">
<polygon fill="white" stroke="black" points="0,-38.5 0,-57.75 112,-57.75 112,-38.5 0,-38.5"/>
<text text-anchor="middle" x="56" y="-44.25" font-family="Helvetica,sans-Serif" font-size="10.00">AAX::IsEffectIDEqual</text>
</a>
</g>
</g>
<!-- Node1&#45;&gt;Node2 -->
<g id="edge1" class="edge">
<title>Node1&#45;&gt;Node2</title>
<path fill="none" stroke="midnightblue" d="M136.28,-37.04C128.4,-38.14 120.31,-39.27 112.45,-40.37"/>
<polygon fill="midnightblue" stroke="midnightblue" points="136.71,-40.51 146.13,-35.66 135.74,-33.58 136.71,-40.51"/>
</g>
<!-- Node3 -->
<g id="node3" class="node">
<title>Node3</title>
<g id="a_node3"><a xlink:href="a00950.html#a7b02e5d4a96f72213f0d1e4b52e13050" target="_top" xlink:title=" ">
<polygon fill="white" stroke="black" points="5.62,-0.5 5.62,-19.75 106.38,-19.75 106.38,-0.5 5.62,-0.5"/>
<text text-anchor="middle" x="56" y="-6.25" font-family="Helvetica,sans-Serif" font-size="10.00">AAX::String2Binary</text>
</a>
</g>
</g>
<!-- Node1&#45;&gt;Node3 -->
<g id="edge2" class="edge">
<title>Node1&#45;&gt;Node3</title>
<path fill="none" stroke="midnightblue" d="M136.31,-21.21C126.49,-19.84 116.34,-18.42 106.72,-17.08"/>
<polygon fill="midnightblue" stroke="midnightblue" points="135.74,-24.67 146.13,-22.59 136.71,-17.74 135.74,-24.67"/>
</g>
</g>
</svg>
