<?xml version="1.0" encoding="UTF-8" standalone="no"?>
<!DOCTYPE svg PUBLIC "-//W3C//DTD SVG 1.1//EN"
 "http://www.w3.org/Graphics/SVG/1.1/DTD/svg11.dtd">
<!-- Generated by graphviz version 12.2.0 (20241103.1931)
 -->
<!-- Title: AAX_CMonolithicParameters::UpdateParameterNormalizedValue Pages: 1 -->
<svg width="364pt" height="100pt"
 viewBox="0.00 0.00 364.00 100.12" xmlns="http://www.w3.org/2000/svg" xmlns:xlink="http://www.w3.org/1999/xlink">
<g id="graph0" class="graph" transform="scale(1 1) rotate(0) translate(4 96.12)">
<title>AAX_CMonolithicParameters::UpdateParameterNormalizedValue</title>
<polygon fill="white" stroke="none" points="-4,4 -4,-96.12 360,-96.12 360,4 -4,4"/>
<!-- Node1 -->
<g id="node1" class="node">
<title>Node1</title>
<g id="a_node1"><a xlink:title="Updates a single parameter&#39;s state to its current value.">
<polygon fill="#bfbfbf" stroke="black" points="0,-33.12 0,-63.62 172,-63.62 172,-33.12 0,-33.12"/>
<text text-anchor="start" x="8" y="-50.12" font-family="Helvetica,sans-Serif" font-size="10.00">AAX_CMonolithicParameters</text>
<text text-anchor="middle" x="86" y="-38.88" font-family="Helvetica,sans-Serif" font-size="10.00">::UpdateParameterNormalizedValue</text>
</a>
</g>
</g>
<!-- Node2 -->
<g id="node2" class="node">
<title>Node2</title>
<g id="a_node2"><a xlink:href="a01916.html#a405918dfca50993f8c0b5259b3c5ee95" target="_top" xlink:title="Given a parameter ID, retrieves a reference to the requested parameter.">
<polygon fill="white" stroke="black" points="216.25,-61.12 216.25,-91.62 347.75,-91.62 347.75,-61.12 216.25,-61.12"/>
<text text-anchor="start" x="224.25" y="-78.12" font-family="Helvetica,sans-Serif" font-size="10.00">AAX_CParameterManager</text>
<text text-anchor="middle" x="282" y="-66.88" font-family="Helvetica,sans-Serif" font-size="10.00">::GetParameterByID</text>
</a>
</g>
</g>
<!-- Node1&#45;&gt;Node2 -->
<g id="edge1" class="edge">
<title>Node1&#45;&gt;Node2</title>
<path fill="none" stroke="midnightblue" d="M172.37,-60.7C183.12,-62.25 194.07,-63.83 204.67,-65.36"/>
<polygon fill="midnightblue" stroke="midnightblue" points="204.11,-68.81 214.51,-66.78 205.11,-61.89 204.11,-68.81"/>
</g>
<!-- Node3 -->
<g id="node3" class="node">
<title>Node3</title>
<g id="a_node3"><a xlink:href="a01852.html#aeff79c1e5cc6b65c7ed21d9912f87caf" target="_top" xlink:title="Updates a single parameter&#39;s state to its current value.">
<polygon fill="white" stroke="black" points="208,-0.5 208,-42.25 356,-42.25 356,-0.5 208,-0.5"/>
<text text-anchor="start" x="216" y="-28.75" font-family="Helvetica,sans-Serif" font-size="10.00">AAX_CEffectParameters</text>
<text text-anchor="start" x="216" y="-17.5" font-family="Helvetica,sans-Serif" font-size="10.00">::UpdateParameterNormalized</text>
<text text-anchor="middle" x="282" y="-6.25" font-family="Helvetica,sans-Serif" font-size="10.00">Value</text>
</a>
</g>
</g>
<!-- Node1&#45;&gt;Node3 -->
<g id="edge2" class="edge">
<title>Node1&#45;&gt;Node3</title>
<path fill="none" stroke="midnightblue" d="M172.37,-36.49C180.39,-35.38 188.51,-34.25 196.52,-33.13"/>
<polygon fill="midnightblue" stroke="midnightblue" points="196.82,-36.63 206.24,-31.78 195.85,-29.69 196.82,-36.63"/>
</g>
</g>
</svg>
