<?xml version="1.0" encoding="UTF-8" standalone="no"?>
<!DOCTYPE svg PUBLIC "-//W3C//DTD SVG 1.1//EN"
 "http://www.w3.org/Graphics/SVG/1.1/DTD/svg11.dtd">
<!-- Generated by graphviz version 12.2.0 (20241103.1931)
 -->
<!-- Title: aax_acf_versioning Pages: 1 -->
<svg width="399pt" height="555pt"
 viewBox="0.00 0.00 398.54 555.00" xmlns="http://www.w3.org/2000/svg" xmlns:xlink="http://www.w3.org/1999/xlink">
<g id="graph0" class="graph" transform="scale(1 1) rotate(0) translate(4 551)">
<title>aax_acf_versioning</title>
<polygon fill="white" stroke="none" points="-4,4 -4,-551 394.54,-551 394.54,4 -4,4"/>
<g id="clust1" class="cluster">
<title>cluster_plugin</title>
<g id="a_clust1"><a xlink:href="a00891.html" target="_top" xlink:title="AAX Effect">
<polygon fill="none" stroke="lightgrey" points="73.54,-8 73.54,-266 323.54,-266 323.54,-8 73.54,-8"/>
<text text-anchor="middle" x="198.54" y="-13.7" font-family="Helvetica,sans-Serif" font-size="14.00">AAX Effect</text>
</a>
</g>
</g>
<g id="clust3" class="cluster">
<title>cluster_acfinterfaces</title>
<polygon fill="none" stroke="lightgrey" points="9.54,-281 9.54,-448 315.54,-448 315.54,-281 9.54,-281"/>
<text text-anchor="middle" x="162.54" y="-286.7" font-family="Helvetica,sans-Serif" font-size="14.00">AAX ACF Interfaces</text>
</g>
<g id="clust4" class="cluster">
<title>cluster_acf</title>
<polygon fill="none" stroke="lightgrey" points="182.54,-463 182.54,-539 382.54,-539 382.54,-463 182.54,-463"/>
<text text-anchor="middle" x="282.54" y="-468.7" font-family="Helvetica,sans-Serif" font-size="14.00">ACF</text>
</g>
<!-- iacfunknown -->
<g id="node1" class="node">
<title>iacfunknown</title>
<g id="a_node1"><a xlink:href="a01772.html" target="_top" xlink:title="IACFUnknown">
<polygon fill="none" stroke="black" points="190.29,-494.5 190.29,-530.5 270.79,-530.5 270.79,-494.5 190.29,-494.5"/>
<text text-anchor="middle" x="230.54" y="-508.62" font-family="Helvetica,sans-Serif" font-size="10.00">IACFUnknown</text>
</a>
</g>
</g>
<!-- cacfunknown -->
<g id="node2" class="node">
<title>cacfunknown</title>
<polygon fill="none" stroke="black" points="289.04,-494.5 289.04,-530.5 374.04,-530.5 374.04,-494.5 289.04,-494.5"/>
<text text-anchor="middle" x="331.54" y="-508.62" font-family="Helvetica,sans-Serif" font-size="10.00">CACFUnknown</text>
</g>
<!-- iacfdata -->
<g id="node3" class="node">
<title>iacfdata</title>
<g id="a_node3"><a xlink:href="a02068.html" target="_top" xlink:title="AAX_IACFEffectParameters">
<polygon fill="none" stroke="black" points="159.92,-403.5 159.92,-439.5 301.17,-439.5 301.17,-403.5 159.92,-403.5"/>
<text text-anchor="middle" x="230.54" y="-417.62" font-family="Helvetica,sans-Serif" font-size="10.00">AAX_IACFEffectParameters</text>
</a>
</g>
</g>
<!-- iacfdata&#45;&gt;iacfunknown -->
<g id="edge10" class="edge">
<title>iacfdata&#45;&gt;iacfunknown</title>
<path fill="none" stroke="black" d="M230.54,-439.66C230.54,-451.89 230.54,-468.63 230.54,-482.87"/>
<polygon fill="none" stroke="black" points="227.04,-482.58 230.54,-492.58 234.04,-482.58 227.04,-482.58"/>
</g>
<!-- iacfdata2 -->
<g id="node4" class="node">
<title>iacfdata2</title>
<polygon fill="none" stroke="black" points="153.92,-312.5 153.92,-348.5 307.17,-348.5 307.17,-312.5 153.92,-312.5"/>
<text text-anchor="middle" x="230.54" y="-326.62" font-family="Helvetica,sans-Serif" font-size="10.00">AAX_IACFEffectParametersV2</text>
</g>
<!-- iacfdata2&#45;&gt;iacfdata -->
<g id="edge6" class="edge">
<title>iacfdata2&#45;&gt;iacfdata</title>
<path fill="none" stroke="black" d="M230.54,-348.66C230.54,-360.89 230.54,-377.63 230.54,-391.87"/>
<polygon fill="none" stroke="black" points="227.04,-391.58 230.54,-401.58 234.04,-391.58 227.04,-391.58"/>
</g>
<!-- idata -->
<g id="node5" class="node">
<title>idata</title>
<g id="a_node5"><a xlink:href="a02268.html" target="_top" xlink:title="AAX_IEffectParameters">
<polygon fill="none" stroke="black" points="192.04,-221.5 192.04,-257.5 313.04,-257.5 313.04,-221.5 192.04,-221.5"/>
<text text-anchor="middle" x="252.54" y="-235.62" font-family="Helvetica,sans-Serif" font-size="10.00">AAX_IEffectParameters</text>
</a>
</g>
</g>
<!-- idata&#45;&gt;cacfunknown -->
<g id="edge11" class="edge">
<title>idata&#45;&gt;cacfunknown</title>
<path fill="none" stroke="black" d="M295.39,-257.94C304.88,-263.85 313.82,-271.44 319.54,-281 357.62,-344.59 346.94,-436.62 338.08,-482.8"/>
<polygon fill="none" stroke="black" points="334.66,-482.05 336.09,-492.54 341.52,-483.45 334.66,-482.05"/>
</g>
<!-- idata&#45;&gt;iacfdata2 -->
<g id="edge5" class="edge">
<title>idata&#45;&gt;iacfdata2</title>
<path fill="none" stroke="black" d="M248.3,-257.66C245.25,-270.02 241.06,-286.96 237.51,-301.29"/>
<polygon fill="none" stroke="black" points="234.21,-300.07 235.21,-310.62 241.01,-301.75 234.21,-300.07"/>
</g>
<!-- cdata -->
<g id="node6" class="node">
<title>cdata</title>
<g id="a_node6"><a xlink:href="a01852.html" target="_top" xlink:title="AAX_CEffectParameters">
<polygon fill="none" stroke="black" points="189.79,-130.5 189.79,-166.5 315.29,-166.5 315.29,-130.5 189.79,-130.5"/>
<text text-anchor="middle" x="252.54" y="-144.62" font-family="Helvetica,sans-Serif" font-size="10.00">AAX_CEffectParameters</text>
</a>
</g>
</g>
<!-- cdata&#45;&gt;idata -->
<g id="edge1" class="edge">
<title>cdata&#45;&gt;idata</title>
<path fill="none" stroke="black" d="M252.54,-166.66C252.54,-178.89 252.54,-195.63 252.54,-209.87"/>
<polygon fill="none" stroke="black" points="249.04,-209.58 252.54,-219.58 256.04,-209.58 249.04,-209.58"/>
</g>
<!-- icontroller -->
<g id="node10" class="node">
<title>icontroller</title>
<g id="a_node10"><a xlink:href="a02224.html" target="_top" xlink:title="AAX_IController">
<polygon fill="none" stroke="black" points="83.29,-221.5 83.29,-257.5 169.79,-257.5 169.79,-221.5 83.29,-221.5"/>
<text text-anchor="middle" x="126.54" y="-235.62" font-family="Helvetica,sans-Serif" font-size="10.00">AAX_IController</text>
</a>
</g>
</g>
<!-- cdata&#45;&gt;icontroller -->
<g id="edge3" class="edge">
<title>cdata&#45;&gt;icontroller</title>
<path fill="none" stroke="black" stroke-dasharray="5,2" d="M217.45,-174.29C199.46,-186.99 177.67,-202.38 159.94,-214.91"/>
<polygon fill="none" stroke="black" points="217.41,-174.31 220,-167.59 227.21,-167.39 224.62,-174.12 217.41,-174.31"/>
<polygon fill="black" stroke="black" points="152.07,-220.47 157.64,-211.02 155.16,-218.29 160.24,-214.7 160.24,-214.7 160.24,-214.7 155.16,-218.29 162.83,-218.38 152.07,-220.47"/>
</g>
<!-- mydata -->
<g id="node7" class="node">
<title>mydata</title>
<polygon fill="none" stroke="gray" points="211.17,-39.5 211.17,-75.5 293.92,-75.5 293.92,-39.5 211.17,-39.5"/>
<text text-anchor="middle" x="252.54" y="-53.62" font-family="Helvetica,sans-Serif" font-size="10.00">My Data Model</text>
</g>
<!-- mydata&#45;&gt;cdata -->
<g id="edge2" class="edge">
<title>mydata&#45;&gt;cdata</title>
<path fill="none" stroke="black" d="M252.54,-75.66C252.54,-87.89 252.54,-104.63 252.54,-118.87"/>
<polygon fill="none" stroke="black" points="249.04,-118.58 252.54,-128.58 256.04,-118.58 249.04,-118.58"/>
</g>
<!-- iacfcontroller -->
<g id="node8" class="node">
<title>iacfcontroller</title>
<g id="a_node8"><a xlink:href="a02028.html" target="_top" xlink:title="AAX_IACFController">
<polygon fill="none" stroke="black" points="29.17,-403.5 29.17,-439.5 135.92,-439.5 135.92,-403.5 29.17,-403.5"/>
<text text-anchor="middle" x="82.54" y="-417.62" font-family="Helvetica,sans-Serif" font-size="10.00">AAX_IACFController</text>
</a>
</g>
</g>
<!-- iacfcontroller&#45;&gt;iacfunknown -->
<g id="edge12" class="edge">
<title>iacfcontroller&#45;&gt;iacfunknown</title>
<path fill="none" stroke="black" d="M111.43,-439.87C134.38,-453.67 166.68,-473.1 191.86,-488.24"/>
<polygon fill="none" stroke="black" points="189.8,-491.09 200.18,-493.24 193.41,-485.09 189.8,-491.09"/>
</g>
<!-- iacfcontroller2 -->
<g id="node9" class="node">
<title>iacfcontroller2</title>
<polygon fill="none" stroke="black" points="17.17,-312.5 17.17,-348.5 135.92,-348.5 135.92,-312.5 17.17,-312.5"/>
<text text-anchor="middle" x="76.54" y="-326.62" font-family="Helvetica,sans-Serif" font-size="10.00">AAX_IACFControllerV2</text>
</g>
<!-- iacfcontroller2&#45;&gt;iacfcontroller -->
<g id="edge9" class="edge">
<title>iacfcontroller2&#45;&gt;iacfcontroller</title>
<path fill="none" stroke="black" d="M77.7,-348.66C78.52,-360.89 79.65,-377.63 80.61,-391.87"/>
<polygon fill="none" stroke="black" points="77.1,-391.84 81.27,-401.58 84.09,-391.37 77.1,-391.84"/>
</g>
<!-- vcontroller -->
<g id="node11" class="node">
<title>vcontroller</title>
<polygon fill="none" stroke="black" points="81.42,-130.5 81.42,-166.5 171.67,-166.5 171.67,-130.5 81.42,-130.5"/>
<text text-anchor="middle" x="126.54" y="-144.62" font-family="Helvetica,sans-Serif" font-size="10.00">AAX_VController</text>
</g>
<!-- vcontroller&#45;&gt;iacfcontroller -->
<g id="edge7" class="edge">
<title>vcontroller&#45;&gt;iacfcontroller</title>
<path fill="none" stroke="black" stroke-dasharray="5,2" d="M92.61,-175.07C64.06,-198.89 25.29,-237.25 8.54,-281 -2.26,-309.22 -3.26,-321.18 8.54,-349 16.53,-367.83 32.18,-384.13 47.04,-396.38"/>
<polygon fill="none" stroke="black" points="92.59,-175.09 94.73,-168.2 101.91,-167.53 99.77,-174.42 92.59,-175.09"/>
<polygon fill="black" stroke="black" points="54.68,-402.37 44.03,-399.74 51.7,-400.03 46.81,-396.2 46.81,-396.2 46.81,-396.2 51.7,-400.03 49.58,-392.66 54.68,-402.37"/>
</g>
<!-- vcontroller&#45;&gt;iacfcontroller2 -->
<g id="edge8" class="edge">
<title>vcontroller&#45;&gt;iacfcontroller2</title>
<path fill="none" stroke="black" stroke-dasharray="5,2" d="M100.66,-176.49C90.42,-189 79.84,-204.69 74.54,-221 66.05,-247.12 67.88,-278.68 71.03,-301.01"/>
<polygon fill="none" stroke="black" points="100.61,-176.55 101.52,-169.39 108.47,-167.48 107.57,-174.63 100.61,-176.55"/>
<polygon fill="black" stroke="black" points="72.61,-310.87 66.58,-301.71 72.01,-307.14 71.02,-301 71.02,-301 71.02,-301 72.01,-307.14 75.47,-300.29 72.61,-310.87"/>
</g>
<!-- vcontroller&#45;&gt;icontroller -->
<g id="edge4" class="edge">
<title>vcontroller&#45;&gt;icontroller</title>
<path fill="none" stroke="black" d="M126.54,-166.66C126.54,-178.89 126.54,-195.63 126.54,-209.87"/>
<polygon fill="none" stroke="black" points="123.04,-209.58 126.54,-219.58 130.04,-209.58 123.04,-209.58"/>
</g>
</g>
</svg>
