<?xml version="1.0" encoding="UTF-8" standalone="no"?>
<!DOCTYPE svg PUBLIC "-//W3C//DTD SVG 1.1//EN"
 "http://www.w3.org/Graphics/SVG/1.1/DTD/svg11.dtd">
<!-- Generated by graphviz version 12.2.0 (20241103.1931)
 -->
<!-- Title: Graph Legend Pages: 1 -->
<svg width="505pt" height="160pt"
 viewBox="0.00 0.00 505.38 160.25" xmlns="http://www.w3.org/2000/svg" xmlns:xlink="http://www.w3.org/1999/xlink">
<g id="graph0" class="graph" transform="scale(1 1) rotate(0) translate(4 156.25)">
<title>Graph Legend</title>
<polygon fill="white" stroke="none" points="-4,4 -4,-156.25 501.38,-156.25 501.38,4 -4,4"/>
<!-- Node9 -->
<g id="node1" class="node">
<title>Node9</title>
<polygon fill="#bfbfbf" stroke="black" points="290.5,-19.25 237,-19.25 237,0 290.5,0 290.5,-19.25"/>
<text text-anchor="middle" x="263.75" y="-5.75" font-family="Helvetica,sans-Serif" font-size="10.00">Inherited</text>
</g>
<!-- Node10 -->
<g id="node2" class="node">
<title>Node10</title>
<polygon fill="none" stroke="black" points="65.5,-85.75 0,-85.75 0,-66.5 65.5,-66.5 65.5,-85.75"/>
<text text-anchor="middle" x="32.75" y="-72.25" font-family="Helvetica,sans-Serif" font-size="10.00">PublicBase</text>
</g>
<!-- Node10&#45;&gt;Node9 -->
<g id="edge1" class="edge">
<title>Node10&#45;&gt;Node9</title>
<path fill="none" stroke="midnightblue" d="M76.15,-63.01C123.32,-49.84 197.21,-29.21 236.71,-18.18"/>
<polygon fill="midnightblue" stroke="midnightblue" points="75.5,-59.55 66.81,-65.61 77.39,-66.3 75.5,-59.55"/>
</g>
<!-- Node11 -->
<g id="node3" class="node">
<title>Node11</title>
<polygon fill="none" stroke="red" points="62.5,-152.25 3,-152.25 3,-133 62.5,-133 62.5,-152.25"/>
<text text-anchor="middle" x="32.75" y="-138.75" font-family="Helvetica,sans-Serif" font-size="10.00">Truncated</text>
</g>
<!-- Node11&#45;&gt;Node10 -->
<g id="edge2" class="edge">
<title>Node11&#45;&gt;Node10</title>
<path fill="none" stroke="midnightblue" d="M32.75,-121.15C32.75,-109.32 32.75,-95.04 32.75,-86.02"/>
<polygon fill="midnightblue" stroke="midnightblue" points="29.25,-121.14 32.75,-131.14 36.25,-121.14 29.25,-121.14"/>
</g>
<!-- Node13 -->
<g id="node4" class="node">
<title>Node13</title>
<polygon fill="none" stroke="black" points="164,-85.75 83.5,-85.75 83.5,-66.5 164,-66.5 164,-85.75"/>
<text text-anchor="middle" x="123.75" y="-72.25" font-family="Helvetica,sans-Serif" font-size="10.00">ProtectedBase</text>
</g>
<!-- Node13&#45;&gt;Node9 -->
<g id="edge3" class="edge">
<title>Node13&#45;&gt;Node9</title>
<path fill="none" stroke="darkgreen" d="M153.67,-61.34C180.99,-48.75 220.58,-30.51 244.09,-19.68"/>
<polygon fill="darkgreen" stroke="darkgreen" points="152.5,-58.02 144.89,-65.39 155.43,-64.38 152.5,-58.02"/>
</g>
<!-- Node14 -->
<g id="node5" class="node">
<title>Node14</title>
<polygon fill="none" stroke="black" points="251.38,-85.75 182.12,-85.75 182.12,-66.5 251.38,-66.5 251.38,-85.75"/>
<text text-anchor="middle" x="216.75" y="-72.25" font-family="Helvetica,sans-Serif" font-size="10.00">PrivateBase</text>
</g>
<!-- Node14&#45;&gt;Node9 -->
<g id="edge4" class="edge">
<title>Node14&#45;&gt;Node9</title>
<path fill="none" stroke="#8b1a1a" d="M230.05,-56.88C238.95,-44.66 250.28,-29.11 257.27,-19.52"/>
<polygon fill="#8b1a1a" stroke="#8b1a1a" points="227.24,-54.79 224.18,-64.93 232.89,-58.91 227.24,-54.79"/>
</g>
<!-- Node15 -->
<g id="node6" class="node">
<title>Node15</title>
<polygon fill="none" stroke="#bfbfbf" points="351.75,-85.75 269.75,-85.75 269.75,-66.5 351.75,-66.5 351.75,-85.75"/>
<text text-anchor="middle" x="310.75" y="-72.25" font-family="Helvetica,sans-Serif" font-size="10.00">Undocumented</text>
</g>
<!-- Node15&#45;&gt;Node9 -->
<g id="edge5" class="edge">
<title>Node15&#45;&gt;Node9</title>
<path fill="none" stroke="midnightblue" d="M297.45,-56.88C288.55,-44.66 277.22,-29.11 270.23,-19.52"/>
<polygon fill="midnightblue" stroke="midnightblue" points="294.61,-58.91 303.32,-64.93 300.26,-54.79 294.61,-58.91"/>
</g>
<!-- Node16 -->
<g id="node7" class="node">
<title>Node16</title>
<polygon fill="none" stroke="black" points="440.12,-85.75 369.38,-85.75 369.38,-66.5 440.12,-66.5 440.12,-85.75"/>
<text text-anchor="middle" x="404.75" y="-72.25" font-family="Helvetica,sans-Serif" font-size="10.00">Templ&lt; int &gt;</text>
</g>
<!-- Node16&#45;&gt;Node9 -->
<g id="edge6" class="edge">
<title>Node16&#45;&gt;Node9</title>
<path fill="none" stroke="midnightblue" d="M374.61,-61.34C347.1,-48.75 307.23,-30.51 283.55,-19.68"/>
<polygon fill="midnightblue" stroke="midnightblue" points="372.92,-64.41 383.47,-65.39 375.83,-58.05 372.92,-64.41"/>
</g>
<!-- Node17 -->
<g id="node8" class="node">
<title>Node17</title>
<polygon fill="none" stroke="black" points="437.88,-152.25 371.62,-152.25 371.62,-133 437.88,-133 437.88,-152.25"/>
<text text-anchor="middle" x="404.75" y="-138.75" font-family="Helvetica,sans-Serif" font-size="10.00">Templ&lt; T &gt;</text>
</g>
<!-- Node17&#45;&gt;Node16 -->
<g id="edge7" class="edge">
<title>Node17&#45;&gt;Node16</title>
<path fill="none" stroke="orange" stroke-dasharray="5,2" d="M404.75,-121.15C404.75,-109.32 404.75,-95.04 404.75,-86.02"/>
<polygon fill="orange" stroke="orange" points="401.25,-121.14 404.75,-131.14 408.25,-121.14 401.25,-121.14"/>
<text text-anchor="middle" x="419" y="-105.5" font-family="Helvetica,sans-Serif" font-size="10.00">&lt; int &gt;</text>
</g>
<!-- Node18 -->
<g id="node9" class="node">
<title>Node18</title>
<polygon fill="none" stroke="black" points="497.38,-85.75 458.12,-85.75 458.12,-66.5 497.38,-66.5 497.38,-85.75"/>
<text text-anchor="middle" x="477.75" y="-72.25" font-family="Helvetica,sans-Serif" font-size="10.00">Used</text>
</g>
<!-- Node18&#45;&gt;Node9 -->
<g id="edge8" class="edge">
<title>Node18&#45;&gt;Node9</title>
<path fill="none" stroke="#9a32cd" stroke-dasharray="5,2" d="M447.1,-65.89C405.19,-53.25 330.65,-30.79 290.74,-18.76"/>
<polygon fill="#9a32cd" stroke="#9a32cd" points="445.97,-69.2 456.55,-68.74 447.99,-62.5 445.97,-69.2"/>
<text text-anchor="middle" x="413.56" y="-39" font-family="Helvetica,sans-Serif" font-size="10.00">m_usedClass</text>
</g>
</g>
</svg>
