<?xml version="1.0" encoding="UTF-8" standalone="no"?>
<!DOCTYPE svg PUBLIC "-//W3C//DTD SVG 1.1//EN"
 "http://www.w3.org/Graphics/SVG/1.1/DTD/svg11.dtd">
<!-- Generated by graphviz version 12.2.0 (20241103.1931)
 -->
<!-- Title: Graphical Class Hierarchy Pages: 1 -->
<svg width="743pt" height="273pt"
 viewBox="0.00 0.00 743.25 272.88" xmlns="http://www.w3.org/2000/svg" xmlns:xlink="http://www.w3.org/1999/xlink">
<g id="graph0" class="graph" transform="scale(1 1) rotate(0) translate(4 268.88)">
<title>Graphical Class Hierarchy</title>
<polygon fill="white" stroke="none" points="-4,4 -4,-268.88 739.25,-268.88 739.25,4 -4,4"/>
<!-- Node0 -->
<g id="node1" class="node">
<title>Node0</title>
<g id="a_node1"><a xlink:href="a02240.html" target="_top" xlink:title="Defines the display behavior for a parameter.">
<polygon fill="white" stroke="black" points="0,-157.12 0,-176.38 139,-176.38 139,-157.12 0,-157.12"/>
<text text-anchor="middle" x="69.5" y="-162.88" font-family="Helvetica,sans-Serif" font-size="10.00">AAX_IDisplayDelegateBase</text>
</a>
</g>
</g>
<!-- Node1 -->
<g id="node2" class="node">
<title>Node1</title>
<g id="a_node2"><a xlink:href="a02244.html" target="_top" xlink:title="Classes for parameter value string conversion.">
<polygon fill="white" stroke="black" points="175,-157.12 175,-176.38 315.5,-176.38 315.5,-157.12 175,-157.12"/>
<text text-anchor="middle" x="245.25" y="-162.88" font-family="Helvetica,sans-Serif" font-size="10.00">AAX_IDisplayDelegate&lt; T &gt;</text>
</a>
</g>
</g>
<!-- Node0&#45;&gt;Node1 -->
<g id="edge1" class="edge">
<title>Node0&#45;&gt;Node1</title>
<path fill="none" stroke="midnightblue" d="M150.49,-166.75C158.56,-166.75 166.71,-166.75 174.65,-166.75"/>
<polygon fill="midnightblue" stroke="midnightblue" points="150.68,-163.25 140.68,-166.75 150.68,-170.25 150.68,-163.25"/>
</g>
<!-- Node2 -->
<g id="node3" class="node">
<title>Node2</title>
<g id="a_node3"><a xlink:href="a01820.html" target="_top" xlink:title="A binary display format conforming to AAX_IDisplayDelegate.">
<polygon fill="white" stroke="black" points="356.75,-245.12 356.75,-264.38 529.5,-264.38 529.5,-245.12 356.75,-245.12"/>
<text text-anchor="middle" x="443.12" y="-250.88" font-family="Helvetica,sans-Serif" font-size="10.00">AAX_CBinaryDisplayDelegate&lt; T &gt;</text>
</a>
</g>
</g>
<!-- Node1&#45;&gt;Node2 -->
<g id="edge2" class="edge">
<title>Node1&#45;&gt;Node2</title>
<path fill="none" stroke="midnightblue" d="M266.98,-183.75C287.3,-199.55 319.76,-222.58 351.5,-235.75 360.11,-239.32 369.47,-242.25 378.8,-244.65"/>
<polygon fill="midnightblue" stroke="midnightblue" points="269.23,-181.06 259.22,-177.58 264.88,-186.54 269.23,-181.06"/>
</g>
<!-- Node3 -->
<g id="node4" class="node">
<title>Node3</title>
<g id="a_node4"><a xlink:href="a01880.html" target="_top" xlink:title="A numeric display format conforming to AAX_IDisplayDelegate.">
<polygon fill="white" stroke="black" points="365.38,-195.5 365.38,-226 520.88,-226 520.88,-195.5 365.38,-195.5"/>
<text text-anchor="start" x="373.38" y="-212.5" font-family="Helvetica,sans-Serif" font-size="10.00">AAX_CNumberDisplayDelegate</text>
<text text-anchor="middle" x="443.12" y="-201.25" font-family="Helvetica,sans-Serif" font-size="10.00">&lt; T, Precision, SpaceAfter &gt;</text>
</a>
</g>
</g>
<!-- Node1&#45;&gt;Node3 -->
<g id="edge3" class="edge">
<title>Node1&#45;&gt;Node3</title>
<path fill="none" stroke="midnightblue" d="M302.22,-179.32C323.97,-184.21 349.12,-189.86 372.05,-195.01"/>
<polygon fill="midnightblue" stroke="midnightblue" points="303.19,-175.95 292.66,-177.18 301.65,-182.78 303.19,-175.95"/>
</g>
<!-- Node4 -->
<g id="node5" class="node">
<title>Node4</title>
<g id="a_node5"><a xlink:href="a01936.html" target="_top" xlink:title="A generic display format conforming to AAX_IDisplayDelegate.">
<polygon fill="white" stroke="black" points="359,-157.12 359,-176.38 527.25,-176.38 527.25,-157.12 359,-157.12"/>
<text text-anchor="middle" x="443.12" y="-162.88" font-family="Helvetica,sans-Serif" font-size="10.00">AAX_CStateDisplayDelegate&lt; T &gt;</text>
</a>
</g>
</g>
<!-- Node1&#45;&gt;Node4 -->
<g id="edge4" class="edge">
<title>Node1&#45;&gt;Node4</title>
<path fill="none" stroke="midnightblue" d="M327.05,-166.75C337.49,-166.75 348.19,-166.75 358.66,-166.75"/>
<polygon fill="midnightblue" stroke="midnightblue" points="327.37,-163.25 317.37,-166.75 327.37,-170.25 327.37,-163.25"/>
</g>
<!-- Node5 -->
<g id="node6" class="node">
<title>Node5</title>
<g id="a_node6"><a xlink:href="a01964.html" target="_top" xlink:title="A string, or list, display format conforming to AAX_IDisplayDelegate.">
<polygon fill="white" stroke="black" points="357.88,-119.12 357.88,-138.38 528.38,-138.38 528.38,-119.12 357.88,-119.12"/>
<text text-anchor="middle" x="443.12" y="-124.88" font-family="Helvetica,sans-Serif" font-size="10.00">AAX_CStringDisplayDelegate&lt; T &gt;</text>
</a>
</g>
</g>
<!-- Node1&#45;&gt;Node5 -->
<g id="edge5" class="edge">
<title>Node1&#45;&gt;Node5</title>
<path fill="none" stroke="midnightblue" d="M309.18,-154.54C335.35,-149.46 365.37,-143.64 390.25,-138.81"/>
<polygon fill="midnightblue" stroke="midnightblue" points="308.86,-151.04 299.71,-156.38 310.2,-157.91 308.86,-151.04"/>
</g>
<!-- Node6 -->
<g id="node7" class="node">
<title>Node6</title>
<g id="a_node7"><a xlink:href="a02248.html" target="_top" xlink:title="The base class for all concrete display delegate decorators.">
<polygon fill="white" stroke="black" points="351.5,-81.12 351.5,-100.38 534.75,-100.38 534.75,-81.12 351.5,-81.12"/>
<text text-anchor="middle" x="443.12" y="-86.88" font-family="Helvetica,sans-Serif" font-size="10.00">AAX_IDisplayDelegateDecorator&lt; T &gt;</text>
</a>
</g>
</g>
<!-- Node1&#45;&gt;Node6 -->
<g id="edge6" class="edge">
<title>Node1&#45;&gt;Node6</title>
<path fill="none" stroke="midnightblue" d="M270.87,-150.75C291.61,-137.94 322.46,-120.4 351.5,-109.75 361.16,-106.21 371.65,-103.25 381.96,-100.8"/>
<polygon fill="midnightblue" stroke="midnightblue" points="269.16,-147.69 262.56,-155.98 272.89,-153.61 269.16,-147.69"/>
</g>
<!-- Node7 -->
<g id="node8" class="node">
<title>Node7</title>
<g id="a_node8"><a xlink:href="a01840.html" target="_top" xlink:title="A percent decorator conforming to AAX_IDisplayDelegateDecorator.">
<polygon fill="white" stroke="black" points="576,-150.5 576,-181 730,-181 730,-150.5 576,-150.5"/>
<text text-anchor="start" x="584" y="-167.5" font-family="Helvetica,sans-Serif" font-size="10.00">AAX_CDecibelDisplayDelegate</text>
<text text-anchor="middle" x="653" y="-156.25" font-family="Helvetica,sans-Serif" font-size="10.00">Decorator&lt; T &gt;</text>
</a>
</g>
</g>
<!-- Node6&#45;&gt;Node7 -->
<g id="edge7" class="edge">
<title>Node6&#45;&gt;Node7</title>
<path fill="none" stroke="midnightblue" d="M522.18,-104.39C526.51,-105.99 530.73,-107.76 534.75,-109.75 553.68,-119.1 552.27,-130.54 570.75,-140.75 577.08,-144.25 583.96,-147.32 590.96,-150.01"/>
<polygon fill="midnightblue" stroke="midnightblue" points="523.28,-101.07 512.69,-101.28 521.1,-107.72 523.28,-101.07"/>
</g>
<!-- Node8 -->
<g id="node9" class="node">
<title>Node8</title>
<g id="a_node9"><a xlink:href="a01920.html" target="_top" xlink:title="A percent decorator conforming to AAX_IDisplayDelegateDecorator.">
<polygon fill="white" stroke="black" points="575.62,-100.5 575.62,-131 730.38,-131 730.38,-100.5 575.62,-100.5"/>
<text text-anchor="start" x="583.62" y="-117.5" font-family="Helvetica,sans-Serif" font-size="10.00">AAX_CPercentDisplayDelegate</text>
<text text-anchor="middle" x="653" y="-106.25" font-family="Helvetica,sans-Serif" font-size="10.00">Decorator&lt; T &gt;</text>
</a>
</g>
</g>
<!-- Node6&#45;&gt;Node8 -->
<g id="edge8" class="edge">
<title>Node6&#45;&gt;Node8</title>
<path fill="none" stroke="midnightblue" d="M539.17,-102.18C551.33,-103.64 563.65,-105.12 575.46,-106.54"/>
<polygon fill="midnightblue" stroke="midnightblue" points="539.93,-98.75 529.58,-101.03 539.09,-105.7 539.93,-98.75"/>
</g>
<!-- Node9 -->
<g id="node10" class="node">
<title>Node9</title>
<g id="a_node10"><a xlink:href="a01976.html" target="_top" xlink:title="A unit type decorator conforming to AAX_IDisplayDelegateDecorator.">
<polygon fill="white" stroke="black" points="583.5,-50.5 583.5,-81 722.5,-81 722.5,-50.5 583.5,-50.5"/>
<text text-anchor="start" x="591.5" y="-67.5" font-family="Helvetica,sans-Serif" font-size="10.00">AAX_CUnitDisplayDelegate</text>
<text text-anchor="middle" x="653" y="-56.25" font-family="Helvetica,sans-Serif" font-size="10.00">Decorator&lt; T &gt;</text>
</a>
</g>
</g>
<!-- Node6&#45;&gt;Node9 -->
<g id="edge9" class="edge">
<title>Node6&#45;&gt;Node9</title>
<path fill="none" stroke="midnightblue" d="M539.29,-79.31C554.03,-77.53 569.01,-75.73 583.04,-74.04"/>
<polygon fill="midnightblue" stroke="midnightblue" points="539.09,-75.8 529.58,-80.47 539.93,-82.75 539.09,-75.8"/>
</g>
<!-- Node10 -->
<g id="node11" class="node">
<title>Node10</title>
<g id="a_node11"><a xlink:href="a01980.html" target="_top" xlink:title="A unit prefix decorator conforming to AAX_IDisplayDelegateDecorator.">
<polygon fill="white" stroke="black" points="570.75,-0.5 570.75,-31 735.25,-31 735.25,-0.5 570.75,-0.5"/>
<text text-anchor="start" x="578.75" y="-17.5" font-family="Helvetica,sans-Serif" font-size="10.00">AAX_CUnitPrefixDisplayDelegate</text>
<text text-anchor="middle" x="653" y="-6.25" font-family="Helvetica,sans-Serif" font-size="10.00">Decorator&lt; T &gt;</text>
</a>
</g>
</g>
<!-- Node6&#45;&gt;Node10 -->
<g id="edge10" class="edge">
<title>Node6&#45;&gt;Node10</title>
<path fill="none" stroke="midnightblue" d="M478.26,-76.44C503.59,-66.02 539.08,-51.86 570.75,-40.75 579.8,-37.58 589.5,-34.4 598.92,-31.43"/>
<polygon fill="midnightblue" stroke="midnightblue" points="477.03,-73.16 469.12,-80.22 479.7,-79.63 477.03,-73.16"/>
</g>
</g>
</svg>
